<svg width="24" height="23" viewBox="0 0 24 23" fill="none" xmlns="http://www.w3.org/2000/svg">
<path d="M20.942 5.10714H17.0773C16.9646 3.71586 16.3322 2.418 15.3061 1.4717C14.28 0.5254 12.9353 0 11.5395 0C10.1436 0 8.79892 0.5254 7.77281 1.4717C6.7467 2.418 6.11437 3.71586 6.00159 5.10714H2.13694C1.57019 5.10714 1.02665 5.33228 0.625895 5.73304C0.225141 6.13379 0 6.67733 0 7.24408V20.0657C0 20.6325 0.225141 21.176 0.625895 21.5768C1.02665 21.9775 1.57019 22.2026 2.13694 22.2026H20.942C21.5087 22.2026 22.0523 21.9775 22.453 21.5768C22.8538 21.176 23.0789 20.6325 23.0789 20.0657V7.24408C23.0789 6.67733 22.8538 6.13379 22.453 5.73304C22.0523 5.33228 21.5087 5.10714 20.942 5.10714ZM11.5395 2.54282C12.2588 2.54289 12.9541 2.80215 13.4978 3.2731C14.0416 3.74406 14.3974 4.39517 14.5002 5.10714H8.57874C8.6815 4.39517 9.03736 3.74406 9.58112 3.2731C10.1249 2.80215 10.8201 2.54289 11.5395 2.54282ZM20.5146 19.6383H2.56433V7.67147H20.5146V19.6383Z" fill="#3761FF"/>
</svg>
