<svg width="32" height="32" viewBox="0 0 32 32" fill="none" xmlns="http://www.w3.org/2000/svg">
<path d="M27.1519 16.9427C27.4018 16.6926 27.5422 16.3535 27.5422 16C27.5422 15.6464 27.4018 15.3074 27.1519 15.0573L19.6092 7.51466C19.4862 7.38731 19.3391 7.28573 19.1764 7.21585C19.0137 7.14598 18.8388 7.10919 18.6617 7.10765C18.4847 7.10612 18.3091 7.13985 18.1452 7.20689C17.9814 7.27393 17.8325 7.37294 17.7073 7.49813C17.5821 7.62332 17.4831 7.77219 17.4161 7.93605C17.3491 8.09991 17.3153 8.27548 17.3169 8.45252C17.3184 8.62956 17.3552 8.80452 17.4251 8.96719C17.4949 9.12987 17.5965 9.27699 17.7239 9.39999L22.9905 14.6667L5.33319 14.6667C4.97957 14.6667 4.64043 14.8071 4.39038 15.0572C4.14033 15.3072 3.99985 15.6464 3.99985 16C3.99985 16.3536 4.14033 16.6927 4.39038 16.9428C4.64043 17.1928 4.97957 17.3333 5.33319 17.3333L22.9905 17.3333L17.7239 22.6C17.481 22.8515 17.3466 23.1883 17.3496 23.5379C17.3527 23.8875 17.4929 24.2219 17.7401 24.4691C17.9873 24.7163 18.3217 24.8565 18.6713 24.8596C19.0209 24.8626 19.3577 24.7282 19.6092 24.4853L27.1519 16.9427Z" fill="#333333"/>
</svg>
