<svg width="27" height="23" viewBox="0 0 27 23" fill="none" xmlns="http://www.w3.org/2000/svg">
<path d="M23.9318 19.6364V20.25H24.5455H26.3864V21.4773H0.613636V20.25H2.45455H3.06818V19.6364V1.22727C3.06818 1.06453 3.13283 0.908445 3.24791 0.793366C3.36299 0.678287 3.51907 0.613636 3.68182 0.613636H15.9545C16.1173 0.613636 16.2734 0.678287 16.3885 0.793368C16.5035 0.908445 16.5682 1.06453 16.5682 1.22727V19.6364V20.25H17.1818H22.0909H22.7045V19.6364V9.81818V9.20455H22.0909H20.25V7.97727H23.3182C23.4809 7.97727 23.637 8.04192 23.7521 8.157C23.8672 8.27208 23.9318 8.42816 23.9318 8.59091V19.6364ZM4.90909 1.84091H4.29545V2.45455V19.6364V20.25H4.90909H14.7273H15.3409V19.6364V2.45455V1.84091H14.7273H4.90909ZM7.97727 10.4318H11.6591V11.6591H7.97727V10.4318ZM7.97727 5.52273H11.6591V6.75H7.97727V5.52273Z" fill="#333333" stroke="#3761FF" stroke-width="1.22727"/>
</svg>
