<svg width="42" height="35" viewBox="0 0 42 35" fill="none" xmlns="http://www.w3.org/2000/svg">
<path d="M2.96875 5.87492L13.6248 2L24.2808 5.87492L19.4371 8.7811V11.6873C19.4371 11.6873 18.1449 10.7186 13.6248 10.7186C9.10468 10.7186 7.81239 11.6873 7.81239 11.6873V8.7811L2.96875 5.87492ZM2.96875 5.87492V13.6247" stroke="#3761FF" stroke-width="2.40876" stroke-linecap="round" stroke-linejoin="round"/>
<path d="M19.4371 10.7185V12.4409C19.4371 15.7694 16.8351 18.4683 13.6247 18.4683C10.4144 18.4683 7.81237 15.7694 7.81237 12.4409V10.7185M27.8031 15.6202C27.8031 15.6202 28.7427 14.9363 32.0306 14.9363C35.3185 14.9363 36.2581 15.6183 36.2581 15.6183M27.8031 15.6202V13.6246L24.2808 11.6872L32.0306 8.78101L39.7804 11.6872L36.2581 13.6246V15.6183M27.8031 15.6202V16.1782C27.8031 17.2994 28.2485 18.3747 29.0413 19.1675C29.8341 19.9604 30.9094 20.4058 32.0306 20.4058C33.1518 20.4058 34.2271 19.9604 35.0199 19.1675C35.8127 18.3747 36.2581 17.2994 36.2581 16.1782V15.6183M29.1244 32.9992H36.3027C37.8003 32.9992 38.9899 32.2707 40.0594 31.2516C42.2487 29.1669 38.6548 27.5007 37.285 26.685C36.0668 25.966 34.7141 25.5044 33.3105 25.3288C31.9069 25.1532 30.4822 25.2673 29.1244 25.664M6.62084 25.106C4.79381 26.1271 0.00247925 28.2098 2.92029 30.8157C4.34626 32.0886 5.93304 32.9992 7.93056 32.9992H19.3189C21.3145 32.9992 22.9032 32.0886 24.3292 30.8157C27.247 28.2098 22.4557 26.1271 20.6287 25.106C16.343 22.7133 10.9065 22.7133 6.62084 25.106Z" stroke="#3761FF" stroke-width="2.40876" stroke-linecap="round" stroke-linejoin="round"/>
</svg>
