<svg width="25" height="26" viewBox="0 0 25 26" fill="none" xmlns="http://www.w3.org/2000/svg">
<path d="M24.2672 10.7318L14.2673 0.731956C13.7985 0.263285 13.1627 0 12.4998 0C11.8369 0 11.2012 0.263285 10.7324 0.731956L0.732503 10.7318C0.499415 10.9635 0.314642 11.2391 0.188902 11.5427C0.0631623 11.8464 -0.00104208 12.1719 1.27904e-05 12.5005V24.5004C1.27904e-05 24.8982 0.158046 25.2797 0.439347 25.561C0.720647 25.8423 1.10217 26.0004 1.49999 26.0004H9.49988C9.8977 26.0004 10.2792 25.8423 10.5605 25.561C10.8418 25.2797 10.9999 24.8982 10.9999 24.5004V18.0005H13.9998V24.5004C13.9998 24.8982 14.1579 25.2797 14.4392 25.561C14.7205 25.8423 15.102 26.0004 15.4998 26.0004H23.4997C23.8975 26.0004 24.279 25.8423 24.5603 25.561C24.8416 25.2797 24.9997 24.8982 24.9997 24.5004V12.5005C25.0007 12.1719 24.9365 11.8464 24.8108 11.5427C24.685 11.2391 24.5003 10.9635 24.2672 10.7318ZM21.9997 23.0004H16.9998V16.5005C16.9998 16.1027 16.8417 15.7211 16.5604 15.4398C16.2791 15.1585 15.8976 15.0005 15.4998 15.0005H9.49988C9.10206 15.0005 8.72054 15.1585 8.43924 15.4398C8.15793 15.7211 7.9999 16.1027 7.9999 16.5005V23.0004H2.99997V12.7068L12.4998 3.20692L21.9997 12.7068V23.0004Z" fill="#3761FF"/>
</svg>
