<svg width="31" height="31" viewBox="0 0 31 31" fill="none" xmlns="http://www.w3.org/2000/svg">
<path d="M7.52159 19.5503C6.99597 18.3623 6.72466 17.0774 6.72508 15.7783C6.72508 10.7765 10.6536 6.72508 15.5002 6.72508C20.3468 6.72508 24.2754 10.7778 24.2754 15.7783C24.2758 17.0774 24.0045 18.3623 23.4789 19.5503M15.5002 2V3.35002M29.0004 15.5002H27.6504M3.35002 15.5002H2M25.0449 5.95422L24.0904 6.90868M6.91003 6.91003L5.95556 5.95557M18.8982 25.3648C20.2618 24.9234 20.8099 23.6746 20.9638 22.4191C21.0097 22.0438 20.7005 21.7319 20.3225 21.7319H10.7441C10.6518 21.7305 10.5602 21.7486 10.4754 21.7852C10.3907 21.8217 10.3146 21.8759 10.2523 21.944C10.1901 22.0122 10.143 22.0928 10.1142 22.1805C10.0854 22.2682 10.0755 22.361 10.0853 22.4528C10.2365 23.7057 10.6172 24.621 12.0617 25.3635M18.8982 25.3648L12.0617 25.3635M18.8982 25.3648C18.7349 27.9906 17.9762 29.0301 15.5097 29.0004C12.8717 29.049 12.2642 27.7625 12.0617 25.3635" stroke="#AAAAAA" stroke-width="2.5" stroke-linecap="round" stroke-linejoin="round"/>
</svg>
