<svg width="40" height="40" viewBox="0 0 40 40" fill="none" xmlns="http://www.w3.org/2000/svg">
<path d="M9.362 25.4C8.66118 23.816 8.29944 22.1029 8.3 20.3708C8.3 13.7018 13.538 8.3 20 8.3C26.462 8.3 31.7 13.7036 31.7 20.3708C31.7006 22.1029 31.3388 23.816 30.638 25.4M20 2V3.8M38 20H36.2M3.8 20H2M32.726 7.2722L31.4534 8.5448M8.5466 8.5466L7.274 7.274M24.5306 33.1526C26.3486 32.564 27.0794 30.899 27.2846 29.225C27.3458 28.7246 26.9336 28.3088 26.4296 28.3088H13.6586C13.5355 28.3068 13.4134 28.331 13.3004 28.3798C13.1874 28.4285 13.086 28.5007 13.0029 28.5916C12.9199 28.6825 12.8571 28.7899 12.8187 28.9069C12.7803 29.0238 12.7672 29.1476 12.7802 29.27C12.9818 30.9404 13.4894 32.1608 15.4154 33.1508M24.5306 33.1526L15.4154 33.1508M24.5306 33.1526C24.3128 36.6536 23.3012 38.0396 20.0126 38C16.4954 38.0648 15.6854 36.3494 15.4154 33.1508" stroke="#3761FF" stroke-width="2.7" stroke-linecap="round" stroke-linejoin="round"/>
</svg>
