<svg width="31" height="31" viewBox="0 0 31 31" fill="none" xmlns="http://www.w3.org/2000/svg">
<path d="M25.8333 6.2H16.2454L15.3568 3.53193C15.0141 2.50295 14.3561 1.608 13.4762 0.974027C12.5962 0.340059 11.539 -0.00073175 10.4544 1.17975e-06H5.16667C3.79677 0.00125975 2.48334 0.546008 1.51467 1.51467C0.546006 2.48334 0.00125857 3.79677 0 5.16667V25.8333C0.00125857 27.2032 0.546006 28.5167 1.51467 29.4853C2.48334 30.454 3.79677 30.9987 5.16667 31H25.8333C27.2032 30.9987 28.5167 30.454 29.4853 29.4853C30.454 28.5167 30.9987 27.2032 31 25.8333V11.3667C30.9987 9.99677 30.454 8.68334 29.4853 7.71467C28.5167 6.74601 27.2032 6.20126 25.8333 6.2ZM2.06667 5.16667C2.0676 4.34478 2.3945 3.55683 2.97566 2.97566C3.55682 2.3945 4.34478 2.0676 5.16667 2.06667H10.4544C11.1051 2.06598 11.7394 2.27037 12.2673 2.6508C12.7952 3.03123 13.1897 3.56835 13.3949 4.18583L14.067 6.2H2.06667V5.16667ZM28.9333 25.8333C28.9324 26.6552 28.6055 27.4432 28.0243 28.0243C27.4432 28.6055 26.6552 28.9324 25.8333 28.9333H5.16667C4.34478 28.9324 3.55682 28.6055 2.97566 28.0243C2.3945 27.4432 2.0676 26.6552 2.06667 25.8333V8.26667H25.8333C26.6552 8.2676 27.4432 8.5945 28.0243 9.17566C28.6055 9.75683 28.9324 10.5448 28.9333 11.3667V25.8333Z" fill="#3761FF"/>
<path d="M20.2394 21.8783C21.1821 20.6381 21.6949 19.1245 21.6999 17.5666C21.6999 16.136 21.2757 14.7375 20.4809 13.548C19.6861 12.3585 18.5564 11.4314 17.2347 10.8839C15.913 10.3364 14.4586 10.1932 13.0555 10.4723C11.6523 10.7514 10.3635 11.4403 9.35187 12.4519C8.34027 13.4635 7.65137 14.7524 7.37227 16.1555C7.09317 17.5586 7.23641 19.013 7.78388 20.3347C8.33136 21.6564 9.25847 22.7861 10.448 23.5809C11.6375 24.3758 13.036 24.8 14.4666 24.8C16.0244 24.7949 17.5381 24.2822 18.7783 23.3395L22.0023 26.5635C22.1972 26.7517 22.4582 26.8559 22.7291 26.8535C23.0001 26.8511 23.2593 26.7425 23.4508 26.5509C23.6424 26.3593 23.7511 26.1001 23.7535 25.8292C23.7558 25.5582 23.6517 25.2972 23.4634 25.1023L20.2394 21.8783ZM18.1217 21.2149L18.1176 21.2176L18.1149 21.2218C17.1443 22.1906 15.8286 22.7343 14.4572 22.7333C13.0858 22.7324 11.7709 22.1868 10.8017 21.2166C9.83238 20.2465 9.28806 18.9311 9.28838 17.5597C9.2887 16.1883 9.83363 14.8731 10.8034 13.9034C11.7731 12.9337 13.0882 12.3887 14.4596 12.3884C15.831 12.3881 17.1464 12.9324 18.1166 13.9017C19.0868 14.871 19.6323 16.1859 19.6333 17.5573C19.6342 18.9287 19.0905 20.2443 18.1217 21.2149Z" fill="#3761FF"/>
</svg>
