<svg width="28" height="22" viewBox="0 0 28 22" fill="none" xmlns="http://www.w3.org/2000/svg">
<path d="M13.9904 10.7962C14.651 10.2243 15.1809 9.51706 15.5441 8.72238C15.9072 7.9277 16.0952 7.06419 16.0952 6.19046C16.0952 4.54865 15.443 2.97408 14.282 1.81314C13.1211 0.652207 11.5465 2.21508e-07 9.90473 2.21508e-07C8.26292 2.21508e-07 6.68835 0.652207 5.52742 1.81314C4.36648 2.97408 3.71427 4.54865 3.71427 6.19046C3.71426 7.06419 3.90222 7.9277 4.26538 8.72238C4.62854 9.51706 5.15841 10.2243 5.81903 10.7962C4.08587 11.581 2.61542 12.8483 1.58349 14.4467C0.551564 16.0451 0.00182229 17.9069 0 19.8095C0 20.1378 0.130441 20.4527 0.362628 20.6849C0.594816 20.9171 0.909729 21.0476 1.23809 21.0476C1.56645 21.0476 1.88137 20.9171 2.11355 20.6849C2.34574 20.4527 2.47618 20.1378 2.47618 19.8095C2.47618 17.8393 3.25883 15.9498 4.65195 14.5567C6.04508 13.1636 7.93456 12.3809 9.90473 12.3809C11.8749 12.3809 13.7644 13.1636 15.1575 14.5567C16.5506 15.9498 17.3333 17.8393 17.3333 19.8095C17.3333 20.1378 17.4637 20.4527 17.6959 20.6849C17.9281 20.9171 18.243 21.0476 18.5714 21.0476C18.8997 21.0476 19.2146 20.9171 19.4468 20.6849C19.679 20.4527 19.8095 20.1378 19.8095 19.8095C19.8076 17.9069 19.2579 16.0451 18.226 14.4467C17.194 12.8483 15.7236 11.581 13.9904 10.7962ZM9.90473 9.90473C9.17012 9.90473 8.452 9.68689 7.84119 9.27876C7.23038 8.87063 6.75431 8.29054 6.47319 7.61185C6.19206 6.93315 6.11851 6.18634 6.26183 5.46584C6.40514 4.74534 6.75889 4.08352 7.27834 3.56407C7.79779 3.04462 8.45961 2.69087 9.18011 2.54755C9.90061 2.40424 10.6474 2.47779 11.3261 2.75892C12.0048 3.04004 12.5849 3.51611 12.993 4.12692C13.4012 4.73773 13.619 5.45584 13.619 6.19046C13.619 7.17554 13.2277 8.12028 12.5311 8.81684C11.8346 9.51341 10.8898 9.90473 9.90473 9.90473ZM21.9637 10.3009C22.7561 9.40866 23.2736 8.30642 23.4542 7.12687C23.6347 5.94732 23.4704 4.74074 22.9812 3.65237C22.4919 2.564 21.6985 1.64022 20.6965 0.992235C19.6945 0.344251 18.5266 -0.000318932 17.3333 2.21508e-07C17.0049 2.21508e-07 16.69 0.130442 16.4578 0.362629C16.2256 0.594816 16.0952 0.909729 16.0952 1.23809C16.0952 1.56645 16.2256 1.88137 16.4578 2.11355C16.69 2.34574 17.0049 2.47618 17.3333 2.47618C18.3184 2.47618 19.2631 2.86751 19.9597 3.56407C20.6562 4.26063 21.0476 5.20537 21.0476 6.19046C21.0458 6.84075 20.8733 7.47919 20.5474 8.04192C20.2215 8.60466 19.7536 9.07197 19.1904 9.39711C19.0069 9.50299 18.8535 9.65422 18.7452 9.83631C18.6368 10.0184 18.5769 10.2253 18.5714 10.4371C18.5662 10.6473 18.6146 10.8553 18.7121 11.0416C18.8096 11.2279 18.9529 11.3863 19.1285 11.5019L19.6114 11.8238L19.7723 11.9104C21.2647 12.6183 22.5237 13.7378 23.4011 15.1373C24.2785 16.5367 24.7377 18.1578 24.7247 19.8095C24.7247 20.1378 24.8551 20.4527 25.0873 20.6849C25.3195 20.9171 25.6344 21.0476 25.9628 21.0476C26.2911 21.0476 26.606 20.9171 26.8382 20.6849C27.0704 20.4527 27.2009 20.1378 27.2009 19.8095C27.211 17.9095 26.7351 16.0385 25.8185 14.3743C24.9019 12.7101 23.5749 11.3079 21.9637 10.3009Z" fill="#AAAAAA"/>
</svg>
